<svg width="280" height="76" viewBox="0 0 280 76" fill="none" xmlns="http://www.w3.org/2000/svg">
<g clip-path="url(#clip0_20_38)">
<path d="M43.6671 75.9438L35.6752 63.1094C34.0823 60.6025 31.4733 59.349 27.8481 59.349C22.2455 59.349 17.357 58.1228 13.1825 55.6703C9.00808 53.2179 5.76736 49.7845 3.46041 45.3701C1.15347 40.9012 0 35.6693 0 29.6745C0 23.6251 1.15347 18.3933 3.46041 13.9789C5.76736 9.5645 9.00808 6.15833 13.1825 3.7604C17.357 1.30796 22.273 0.0817413 27.9305 0.0817413C33.588 0.0817413 38.504 1.30796 42.6784 3.7604C46.8529 6.15833 50.0936 9.5645 52.4006 13.9789C54.7075 18.3933 55.861 23.5979 55.861 29.5927C55.861 36.1326 54.4878 41.7459 51.7414 46.4328C49.05 51.1197 45.3149 54.5531 40.5363 56.733C42.8981 57.496 44.9305 59.3217 46.6332 62.2101L52.6477 71.6929L43.6671 75.9438ZM27.9305 50.3567C33.2584 50.3567 37.4054 48.531 40.3715 44.8796C43.3376 41.2282 44.8206 36.1598 44.8206 29.6745C44.8206 23.1347 43.3376 18.0663 40.3715 14.4694C37.4603 10.8725 33.3134 9.07401 27.9305 9.07401C22.6026 9.07401 18.4555 10.8725 15.4895 14.4694C12.5234 18.0663 11.0404 23.1347 11.0404 29.6745C11.0404 36.1598 12.5234 41.2282 15.4895 44.8796C18.4555 48.531 22.6026 50.3567 27.9305 50.3567Z" fill="#DFD9C6"/>
<path d="M68.8916 58.5315V18.5568H78.9433V25.5871C80.9206 20.8457 85.1502 18.2298 91.6314 17.7393L94.7623 17.494L95.4214 26.1593L89.4893 26.7316C82.7332 27.3855 79.3552 30.819 79.3552 37.0318V58.5315H68.8916Z" fill="#DFD9C6"/>
<path d="M124.061 58.5315L98.1899 0.899231H109.477L128.674 45.1248L147.872 0.899231H158.747L132.876 58.5315H124.061Z" fill="#DFD9C6"/>
<path d="M165.824 9.97324V0H177.358V9.97324H165.824ZM166.483 58.5315V18.5568H176.782V58.5315H166.483Z" fill="#DFD9C6"/>
<path d="M214.013 59.349C211.047 59.349 208.382 58.695 206.021 57.387C203.714 56.0791 201.984 54.3079 200.83 52.0734V58.5315H190.778V0.899231H201.077V24.4426C202.286 22.4262 204.016 20.8184 206.268 19.6195C208.575 18.366 211.157 17.7393 214.013 17.7393C217.583 17.7393 220.686 18.584 223.323 20.2735C225.959 21.9629 228.019 24.3609 229.502 27.4673C230.985 30.5192 231.727 34.1979 231.727 38.5033C231.727 42.7542 230.985 46.4601 229.502 49.621C228.019 52.7274 225.932 55.1254 223.24 56.8148C220.604 58.5042 217.528 59.349 214.013 59.349ZM211.129 51.5829C214.205 51.5829 216.677 50.4929 218.544 48.313C220.411 46.0785 221.345 42.8086 221.345 38.5033C221.345 34.1434 220.411 30.9007 218.544 28.7753C216.677 26.5953 214.205 25.5053 211.129 25.5053C208.053 25.5053 205.581 26.5953 203.714 28.7753C201.847 30.9007 200.913 34.1434 200.913 38.5033C200.913 42.8086 201.847 46.0785 203.714 48.313C205.581 50.4929 208.053 51.5829 211.129 51.5829Z" fill="#DFD9C6"/>
<path d="M263.333 59.349C258.773 59.349 254.846 58.5042 251.551 56.8148C248.255 55.1253 245.701 52.7274 243.888 49.621C242.13 46.5145 241.252 42.8359 241.252 38.585C241.252 34.4431 242.103 30.819 243.806 27.7125C245.564 24.6061 247.953 22.1809 250.974 20.437C254.05 18.6385 257.538 17.7393 261.438 17.7393C267.15 17.7393 271.654 19.5377 274.95 23.1346C278.3 26.7316 279.976 31.6364 279.976 37.8493V40.8739H251.139C251.908 48.0133 256.027 51.5829 263.497 51.5829C265.75 51.5829 268.001 51.2559 270.253 50.6019C272.506 49.8935 274.565 48.8035 276.433 47.332L279.316 54.1988C277.394 55.7793 274.977 57.0328 272.066 57.9593C269.155 58.8857 266.244 59.349 263.333 59.349ZM261.85 24.6879C258.829 24.6879 256.384 25.6144 254.517 27.4673C252.649 29.3202 251.523 31.8272 251.139 34.9881H271.407C271.187 31.6637 270.253 29.1295 268.606 27.3855C267.013 25.5871 264.761 24.6879 261.85 24.6879Z" fill="#DFD9C6"/>
</g>
<defs>
<clipPath id="clip0_20_38">
<rect width="280" height="76" fill="white"/>
</clipPath>
</defs>
</svg>
