<svg width="350" height="350" viewBox="0 0 350 350" fill="none" xmlns="http://www.w3.org/2000/svg">
<rect width="350" height="350" rx="27" fill="#1B1725"/>
<path d="M206.077 254.71L189.408 227.69C186.086 222.412 180.644 219.773 173.083 219.773C161.398 219.773 151.202 217.192 142.495 212.029C133.788 206.866 127.029 199.637 122.217 190.344C117.406 180.936 115 169.921 115 157.301C115 144.565 117.406 133.551 122.217 124.257C127.029 114.964 133.788 107.793 142.495 102.745C151.202 97.5815 161.455 95 173.255 95C185.055 95 195.308 97.5815 204.015 102.745C212.722 107.793 219.481 114.964 224.293 124.257C229.104 133.551 231.51 144.508 231.51 157.128C231.51 170.896 228.646 182.714 222.918 192.581C217.304 202.448 209.514 209.677 199.547 214.266C204.473 215.872 208.712 219.716 212.264 225.797L224.808 245.76L206.077 254.71ZM173.255 200.842C184.368 200.842 193.017 196.998 199.203 189.311C205.39 181.624 208.483 170.954 208.483 157.301C208.483 143.532 205.39 132.862 199.203 125.29C193.132 117.717 184.482 113.931 173.255 113.931C162.142 113.931 153.493 117.717 147.307 125.29C141.12 132.862 138.027 143.532 138.027 157.301C138.027 170.954 141.12 181.624 147.307 189.311C153.493 196.998 162.142 200.842 173.255 200.842Z" fill="#DFD9C6"/>
</svg>
