<svg width="20" height="22" viewBox="0 0 20 22" fill="none" xmlns="http://www.w3.org/2000/svg">
<path fill-rule="evenodd" clip-rule="evenodd" d="M9.75003 9.24998C8.23125 9.24998 7.00003 10.4812 7.00003 12C7.00003 13.2588 7.84578 14.32 9.00003 14.6465V18C9.00003 18.4142 9.33582 18.75 9.75003 18.75C10.1642 18.75 10.5 18.4142 10.5 18V14.6465C11.6543 14.32 12.5 13.2588 12.5 12C12.5 10.4812 11.2688 9.24998 9.75003 9.24998ZM8.50003 12C8.50003 11.3096 9.05968 10.75 9.75003 10.75C10.4404 10.75 11 11.3096 11 12C11 12.6903 10.4404 13.25 9.75003 13.25C9.05968 13.25 8.50003 12.6903 8.50003 12Z" fill="#DFD9C6"/>
<path fill-rule="evenodd" clip-rule="evenodd" d="M9.75003 0.249985C6.5744 0.249985 4.00003 2.82435 4.00003 5.99998V6.52279L3.97319 6.53141C2.22267 7.10019 0.850236 8.47262 0.281458 10.2231C-0.00041604 11.0907 -0.000252241 12.1319 1.6278e-05 13.8381V14.1618C-0.000252241 15.8681 -0.00041604 16.9093 0.281458 17.7768C0.850236 19.5273 2.22267 20.8998 3.97319 21.4686C4.8407 21.7504 5.88191 21.7503 7.58817 21.75H11.9119C13.6182 21.7503 14.6594 21.7504 15.5269 21.4686C17.2774 20.8998 18.6498 19.5273 19.2186 17.7768C19.5005 16.9093 19.5003 15.8681 19.5 14.1618V13.8381C19.5003 12.1319 19.5005 11.0907 19.2186 10.2231C18.6498 8.47262 17.2774 7.10019 15.5269 6.53141L15.5 6.52279V5.99998C15.5 2.82435 12.9257 0.249985 9.75003 0.249985ZM7.66606 6.24998C6.78686 6.24995 6.08514 6.24992 5.50003 6.28305V5.99998C5.50003 3.65277 7.40282 1.74998 9.75003 1.74998C12.0972 1.74998 14 3.65277 14 5.99998V6.28305C13.4149 6.24992 12.7132 6.24995 11.834 6.24998H7.66606ZM4.87463 7.85328C5.47223 7.7526 6.27818 7.74998 7.75003 7.74998H11.75C13.2219 7.74998 14.0278 7.7526 14.6254 7.85328C14.7907 7.88112 14.9332 7.9157 15.0634 7.95799C16.3572 8.3784 17.3716 9.3928 17.792 10.6867C17.9908 11.2984 18 12.0803 18 14C18 15.9196 17.9908 16.7016 17.792 17.3133C17.3716 18.6072 16.3572 19.6216 15.0634 20.042C14.4516 20.2407 13.6697 20.25 11.75 20.25H7.75003C5.83038 20.25 5.04842 20.2407 4.43671 20.042C3.14285 19.6216 2.12844 18.6072 1.70804 17.3133C1.50929 16.7016 1.50003 15.9196 1.50003 14C1.50003 12.0803 1.50929 11.2984 1.70804 10.6867C2.12844 9.3928 3.14285 8.3784 4.43671 7.95799C4.56688 7.9157 4.70938 7.88112 4.87463 7.85328Z" fill="#DFD9C6"/>
</svg>
